<svg width="259" height="130" viewBox="0 0 259 130" fill="none" xmlns="http://www.w3.org/2000/svg">
<g filter="url(#filter0_d_241_52)">
<path d="M9.792 68V62.152H22.916C26.4067 62.152 29.4667 61.404 32.096 59.908C34.7253 58.3667 36.7653 56.2587 38.216 53.584C39.712 50.9093 40.46 47.8267 40.46 44.336C40.46 40.8907 39.712 37.8307 38.216 35.156C36.72 32.4813 34.6573 30.396 32.028 28.9C29.3987 27.404 26.3613 26.656 22.916 26.656H9.86V20.808H23.052C26.4973 20.808 29.6707 21.3973 32.572 22.576C35.5187 23.7547 38.0573 25.4093 40.188 27.54C42.364 29.6707 44.0413 32.164 45.22 35.02C46.444 37.876 47.056 41.004 47.056 44.404C47.056 47.7587 46.444 50.8867 45.22 53.788C44.0413 56.644 42.3867 59.1373 40.256 61.268C38.1253 63.3987 35.5867 65.0533 32.64 66.232C29.7387 67.4107 26.588 68 23.188 68H9.792ZM5.576 68V20.808H11.968V68H5.576ZM54.8239 68V35.7H60.9439V68H54.8239ZM60.9439 49.572L58.6319 48.552C58.6319 44.4267 59.5839 41.14 61.4879 38.692C63.3919 36.244 66.1346 35.02 69.7159 35.02C71.3479 35.02 72.8213 35.3147 74.1359 35.904C75.4506 36.448 76.6746 37.3773 77.8079 38.692L73.7959 42.84C73.1159 42.1147 72.3679 41.5933 71.5519 41.276C70.7359 40.9587 69.7839 40.8 68.6959 40.8C66.4293 40.8 64.5706 41.5253 63.1199 42.976C61.6693 44.4267 60.9439 46.6253 60.9439 49.572ZM95.8104 68.68C92.6371 68.68 89.7811 67.932 87.2424 66.436C84.7037 64.94 82.6864 62.9227 81.1904 60.384C79.6944 57.8 78.9464 54.9213 78.9464 51.748C78.9464 48.62 79.6944 45.8093 81.1904 43.316C82.6864 40.7773 84.7037 38.76 87.2424 37.264C89.7811 35.768 92.6371 35.02 95.8104 35.02C98.9384 35.02 101.772 35.768 104.31 37.264C106.894 38.7147 108.934 40.7093 110.43 43.248C111.926 45.7867 112.674 48.62 112.674 51.748C112.674 54.9213 111.926 57.8 110.43 60.384C108.934 62.9227 106.894 64.94 104.31 66.436C101.772 67.932 98.9384 68.68 95.8104 68.68ZM95.8104 62.764C97.8504 62.764 99.6637 62.288 101.25 61.336C102.837 60.384 104.084 59.092 104.99 57.46C105.897 55.7827 106.35 53.8787 106.35 51.748C106.35 49.6627 105.874 47.804 104.922 46.172C104.016 44.54 102.769 43.2707 101.182 42.364C99.6411 41.412 97.8504 40.936 95.8104 40.936C93.7704 40.936 91.9571 41.412 90.3704 42.364C88.7837 43.2707 87.5371 44.54 86.6304 46.172C85.7237 47.804 85.2704 49.6627 85.2704 51.748C85.2704 53.8787 85.7237 55.7827 86.6304 57.46C87.5371 59.092 88.7837 60.384 90.3704 61.336C91.9571 62.288 93.7704 62.764 95.8104 62.764ZM142.418 68V49.164C142.418 46.716 141.647 44.6987 140.106 43.112C138.565 41.5253 136.57 40.732 134.122 40.732C132.49 40.732 131.039 41.0947 129.77 41.82C128.501 42.5453 127.503 43.5427 126.778 44.812C126.053 46.0813 125.69 47.532 125.69 49.164L123.174 47.736C123.174 45.288 123.718 43.112 124.806 41.208C125.894 39.304 127.413 37.808 129.362 36.72C131.311 35.5867 133.51 35.02 135.958 35.02C138.406 35.02 140.559 35.632 142.418 36.856C144.322 38.08 145.818 39.6893 146.906 41.684C147.994 43.6333 148.538 45.7187 148.538 47.94V68H142.418ZM119.57 68V35.7H125.69V68H119.57ZM170.56 68.68C167.613 68.68 164.939 67.9547 162.536 66.504C160.133 65.008 158.229 62.9907 156.824 60.452C155.464 57.9133 154.784 55.0573 154.784 51.884C154.784 48.7107 155.464 45.8547 156.824 43.316C158.229 40.7773 160.111 38.76 162.468 37.264C164.871 35.768 167.568 35.02 170.56 35.02C173.008 35.02 175.184 35.5413 177.088 36.584C179.037 37.5813 180.601 38.9867 181.78 40.8C182.959 42.568 183.616 44.6307 183.752 46.988V56.712C183.616 59.024 182.959 61.0867 181.78 62.9C180.647 64.7133 179.105 66.1413 177.156 67.184C175.252 68.1813 173.053 68.68 170.56 68.68ZM171.58 62.9C174.617 62.9 177.065 61.88 178.924 59.84C180.783 57.7547 181.712 55.1027 181.712 51.884C181.712 49.6627 181.281 47.736 180.42 46.104C179.604 44.4267 178.425 43.1347 176.884 42.228C175.343 41.276 173.552 40.8 171.512 40.8C169.472 40.8 167.659 41.276 166.072 42.228C164.531 43.18 163.307 44.4947 162.4 46.172C161.539 47.804 161.108 49.6853 161.108 51.816C161.108 53.992 161.539 55.9187 162.4 57.596C163.307 59.228 164.553 60.52 166.14 61.472C167.727 62.424 169.54 62.9 171.58 62.9ZM181.304 68V59.296L182.46 51.408L181.304 43.588V35.7H187.492V68H181.304Z" fill="white"/>
</g>
<g filter="url(#filter1_d_241_52)">
<path d="M59.2484 105.584C59.2484 113.032 53.7764 117.288 46.3284 117.288C37.2844 117.288 31.2044 111.968 25.3524 95.856L30.7484 93.652C34.8524 105.508 39.1844 111.74 45.7964 111.74C50.2804 111.74 53.2444 109.232 53.2444 104.9C53.2444 101.404 50.8884 98.668 47.9244 96.54C46.0244 97.072 43.7444 97.452 41.1604 97.68L39.9444 92.284C49.4444 91.068 51.9524 89.016 51.9524 84.836C51.9524 81.492 49.7484 79.364 45.6444 79.364C42.2244 79.364 38.9564 80.428 35.6884 82.404L33.7124 77.084C37.2084 75.108 41.1604 73.968 45.8724 73.968C54.5364 73.968 58.0324 79.06 58.0324 84.912C58.0324 88.864 56.5884 92.056 53.1684 94.26L53.3204 94.412C55.7524 95.02 58.4124 95.248 60.7684 95.248C63.1244 95.248 65.6324 95.02 68.2924 94.336V80.124H62.7444V74.728H101.96V80.124H94.1324V122H87.9764V80.124H74.4484V122H68.2924V99.96C66.2404 100.492 64.1124 100.644 61.9844 100.644C60.7684 100.644 59.3244 100.568 57.8804 100.34C58.7924 101.936 59.2484 103.76 59.2484 105.584ZM150.179 80.124H142.275V122H136.195V110.22C133.459 112.424 129.507 113.716 125.327 113.716C116.967 113.716 111.267 108.928 111.267 101.556C111.267 97.68 112.939 94.944 115.067 93.272L103.743 93.424V87.952H130.419L129.887 93.348H127.455C121.527 93.348 117.347 95.856 117.347 101.252C117.347 105.736 120.539 108.244 124.871 108.244C129.583 108.244 133.535 105.888 136.195 102.696V80.124H100.855V74.728H150.179V80.124ZM162.018 80.124V122H155.862V80.124H149.098V74.728H169.846V80.124H162.018ZM213.91 74.728V80.124H206.082V122H199.926V108.852C197.266 110.676 193.998 111.968 189.286 111.968C179.482 111.968 173.934 106.344 171.274 94.792C179.102 93.348 182.294 91.22 182.294 87.116C182.294 84.456 181.002 82.024 178.95 80.124H168.766V74.728H213.91ZM178.874 98.668C180.698 103.912 183.586 106.572 189.21 106.572C193.922 106.572 197.342 104.14 199.926 101.328V80.124H185.562C187.462 82.556 188.374 85.216 188.374 87.8C188.374 93.196 185.41 96.54 178.874 98.668ZM199.02 75.26C196.588 72.524 194.46 68.42 194.46 64.24C194.46 57.248 199.248 53.904 205.86 53.904C209.052 53.904 211.712 54.588 213.688 55.728L212.092 60.364C210.268 59.68 208.672 59.148 206.62 59.148C202.668 59.148 200.54 61.428 200.54 65.152C200.54 68.572 202.288 71.84 205.252 75.26H199.02Z" fill="white"/>
</g>
<path d="M257.475 79.4749C258.842 78.108 258.842 75.892 257.475 74.5251L235.201 52.2513C233.834 50.8844 231.618 50.8844 230.251 52.2513C228.884 53.6181 228.884 55.8342 230.251 57.201L250.05 77L230.251 96.799C228.884 98.1658 228.884 100.382 230.251 101.749C231.618 103.116 233.834 103.116 235.201 101.749L257.475 79.4749ZM62 80.5L255 80.5L255 73.5L62 73.5L62 80.5Z" fill="white"/>
<defs>
<filter id="filter0_d_241_52" x="1.57605" y="20.808" width="189.916" height="55.872" filterUnits="userSpaceOnUse" color-interpolation-filters="sRGB">
<feFlood flood-opacity="0" result="BackgroundImageFix"/>
<feColorMatrix in="SourceAlpha" type="matrix" values="0 0 0 0 0 0 0 0 0 0 0 0 0 0 0 0 0 0 127 0" result="hardAlpha"/>
<feOffset dy="4"/>
<feGaussianBlur stdDeviation="2"/>
<feComposite in2="hardAlpha" operator="out"/>
<feColorMatrix type="matrix" values="0 0 0 0 0 0 0 0 0 0 0 0 0 0 0 0 0 0 0.25 0"/>
<feBlend mode="normal" in2="BackgroundImageFix" result="effect1_dropShadow_241_52"/>
<feBlend mode="normal" in="SourceGraphic" in2="effect1_dropShadow_241_52" result="shape"/>
</filter>
<filter id="filter1_d_241_52" x="21.3524" y="53.904" width="196.557" height="76.096" filterUnits="userSpaceOnUse" color-interpolation-filters="sRGB">
<feFlood flood-opacity="0" result="BackgroundImageFix"/>
<feColorMatrix in="SourceAlpha" type="matrix" values="0 0 0 0 0 0 0 0 0 0 0 0 0 0 0 0 0 0 127 0" result="hardAlpha"/>
<feOffset dy="4"/>
<feGaussianBlur stdDeviation="2"/>
<feComposite in2="hardAlpha" operator="out"/>
<feColorMatrix type="matrix" values="0 0 0 0 0 0 0 0 0 0 0 0 0 0 0 0 0 0 0.25 0"/>
<feBlend mode="normal" in2="BackgroundImageFix" result="effect1_dropShadow_241_52"/>
<feBlend mode="normal" in="SourceGraphic" in2="effect1_dropShadow_241_52" result="shape"/>
</filter>
</defs>
</svg>
